<svg width="19" height="18" viewBox="0 0 19 18" fill="none" xmlns="http://www.w3.org/2000/svg">
<path d="M16.291 6.705C16.2831 6.6361 16.2681 6.56822 16.246 6.5025V6.435C16.2099 6.35788 16.1618 6.287 16.1035 6.225L11.6035 1.725C11.5415 1.66666 11.4706 1.61856 11.3935 1.5825C11.3711 1.57932 11.3483 1.57932 11.326 1.5825C11.2498 1.53881 11.1656 1.51076 11.0785 1.5H8.04095C7.44422 1.5 6.87192 1.73705 6.44996 2.15901C6.02801 2.58097 5.79095 3.15326 5.79095 3.75V4.5H5.04095C4.44422 4.5 3.87192 4.73705 3.44996 5.15901C3.02801 5.58097 2.79095 6.15326 2.79095 6.75V14.25C2.79095 14.8467 3.02801 15.419 3.44996 15.841C3.87192 16.2629 4.44422 16.5 5.04095 16.5H11.041C11.6377 16.5 12.21 16.2629 12.6319 15.841C13.0539 15.419 13.291 14.8467 13.291 14.25V13.5H14.041C14.6377 13.5 15.21 13.2629 15.6319 12.841C16.0539 12.419 16.291 11.8467 16.291 11.25V6.75C16.291 6.75 16.291 6.75 16.291 6.705ZM11.791 4.0575L13.7335 6H12.541C12.342 6 12.1513 5.92098 12.0106 5.78033C11.87 5.63968 11.791 5.44891 11.791 5.25V4.0575ZM11.791 14.25C11.791 14.4489 11.7119 14.6397 11.5713 14.7803C11.4306 14.921 11.2399 15 11.041 15H5.04095C4.84204 15 4.65128 14.921 4.51062 14.7803C4.36997 14.6397 4.29095 14.4489 4.29095 14.25V6.75C4.29095 6.55109 4.36997 6.36032 4.51062 6.21967C4.65128 6.07902 4.84204 6 5.04095 6H5.79095V11.25C5.79095 11.8467 6.02801 12.419 6.44996 12.841C6.87192 13.2629 7.44422 13.5 8.04095 13.5H11.791V14.25ZM14.791 11.25C14.791 11.4489 14.7119 11.6397 14.5713 11.7803C14.4306 11.921 14.2399 12 14.041 12H8.04095C7.84204 12 7.65128 11.921 7.51062 11.7803C7.36997 11.6397 7.29095 11.4489 7.29095 11.25V3.75C7.29095 3.55109 7.36997 3.36032 7.51062 3.21967C7.65128 3.07902 7.84204 3 8.04095 3H10.291V5.25C10.291 5.84674 10.528 6.41903 10.95 6.84099C11.3719 7.26295 11.9442 7.5 12.541 7.5H14.791V11.25Z" fill="white"/>
</svg>
