<?xml version="1.0" standalone="no"?>
<!DOCTYPE svg PUBLIC "-//W3C//DTD SVG 20010904//EN"
 "http://www.w3.org/TR/2001/REC-SVG-20010904/DTD/svg10.dtd">
<svg version="1.0" xmlns="http://www.w3.org/2000/svg"
 width="1024.000000pt" height="1024.000000pt" viewBox="0 0 1024.000000 1024.000000"
 preserveAspectRatio="xMidYMid meet">

<g transform="translate(0.000000,1024.000000) scale(0.100000,-0.100000)"
fill="rgba(25, 24, 26, 1)" stroke="none">
<path d="M0 5120 l0 -5120 5120 0 5120 0 0 5120 0 5120 -5120 0 -5120 0 0
-5120z m5329 3628 c5 -18 12 -53 16 -78 13 -97 75 -343 87 -348 5 -2 8 -16 8
-31 0 -47 65 -213 98 -252 9 -10 27 -19 40 -19 20 0 23 -4 19 -22 -7 -24 35
-78 60 -78 7 0 13 -4 13 -9 0 -5 18 -17 40 -27 22 -10 40 -21 40 -24 0 -3 10
-7 22 -7 13 -1 27 -8 33 -16 10 -14 110 -32 245 -42 187 -15 331 -45 560 -115
236 -72 281 -96 419 -220 40 -36 80 -69 89 -74 10 -5 23 -15 30 -22 26 -26
163 -106 214 -125 29 -11 84 -26 122 -34 38 -8 127 -42 200 -76 106 -51 143
-63 194 -67 37 -3 68 0 74 6 25 25 -34 103 -217 285 -100 100 -201 198 -225
217 -23 19 -55 46 -71 60 -15 14 -37 32 -49 40 -12 8 -39 27 -59 42 -20 16
-54 40 -76 54 -22 15 -41 31 -43 35 -2 5 -8 9 -12 9 -5 0 -29 14 -53 30 -25
17 -48 30 -51 30 -4 0 -30 16 -58 35 -28 20 -56 34 -62 32 -6 -2 -18 4 -27 14
-13 15 -93 56 -334 169 -59 28 -272 110 -330 127 -27 8 -84 25 -125 38 -41 13
-91 26 -110 30 -19 3 -46 10 -60 16 -14 5 -38 11 -55 12 -16 2 -37 6 -45 10
-8 3 -60 15 -115 27 -54 12 -100 22 -101 23 -30 41 -30 78 1 107 23 21 30 22
117 17 51 -3 143 -17 203 -32 157 -38 366 -95 390 -106 11 -4 38 -15 60 -23
173 -61 216 -79 403 -167 67 -33 126 -59 131 -59 5 0 15 -7 22 -16 8 -9 32
-25 54 -34 23 -10 48 -24 56 -31 8 -8 30 -22 49 -32 19 -10 44 -23 55 -30 11
-7 43 -25 70 -42 44 -26 112 -77 169 -127 11 -10 29 -21 40 -24 12 -4 23 -10
26 -13 3 -4 16 -14 29 -23 52 -36 355 -329 393 -380 15 -21 46 -55 68 -75 22
-21 40 -42 40 -48 0 -5 12 -21 26 -34 14 -13 32 -37 40 -53 8 -15 19 -28 24
-28 6 0 10 -5 10 -12 0 -6 17 -44 37 -84 l38 -73 -21 -28 c-31 -41 -64 -41
-108 0 -20 20 -36 28 -36 21 0 -22 -3 -28 -17 -42 -7 -7 -13 -19 -13 -26 0 -7
-15 -30 -34 -52 -25 -29 -35 -53 -41 -92 -6 -46 -17 -66 -79 -145 -39 -50 -98
-121 -132 -157 -34 -36 -78 -92 -99 -125 -50 -80 -197 -224 -259 -254 -32 -16
-44 -26 -36 -31 35 -22 -24 -188 -91 -253 -25 -25 -40 -50 -44 -75 -18 -104
-60 -171 -169 -267 -36 -32 -63 -63 -59 -68 4 -6 0 -8 -10 -4 -12 4 -28 -4
-50 -25 -17 -17 -24 -25 -14 -18 14 10 17 10 17 -3 0 -8 3 -22 6 -31 4 -10 1
-16 -8 -16 -15 0 -18 -37 -4 -59 5 -7 10 -21 11 -30 3 -28 27 -81 36 -81 5 0
9 -8 9 -17 0 -10 11 -38 24 -63 14 -25 32 -61 41 -80 9 -19 21 -37 27 -41 9
-6 8 -12 -1 -23 -9 -11 -10 -16 -2 -16 6 0 11 -6 11 -12 0 -7 23 -57 50 -112
28 -54 52 -107 53 -117 2 -10 6 -22 10 -25 4 -4 7 -18 7 -31 0 -14 6 -23 15
-23 8 0 15 -7 15 -15 0 -9 11 -38 25 -65 14 -27 25 -56 25 -65 0 -8 4 -15 10
-15 5 0 7 -7 4 -14 -5 -14 0 -23 34 -61 7 -8 11 -19 7 -24 -3 -6 2 -14 10 -19
9 -5 17 -22 17 -41 1 -17 5 -34 10 -37 4 -3 8 -13 8 -24 0 -10 6 -20 14 -23 8
-3 17 -21 21 -39 4 -18 20 -60 35 -93 16 -33 52 -121 80 -195 29 -74 60 -148
70 -165 10 -16 21 -41 25 -55 8 -26 21 -57 73 -172 17 -38 29 -68 26 -68 -2 0
5 -18 16 -40 11 -21 22 -47 24 -57 1 -10 6 -25 9 -33 3 -8 13 -37 22 -65 20
-59 42 -107 71 -155 12 -19 24 -46 29 -60 11 -40 107 -235 116 -238 5 -2 9
-10 9 -18 0 -8 7 -14 15 -14 8 0 15 -6 15 -12 0 -16 68 -97 135 -161 39 -38
136 -97 160 -97 2 0 32 -13 67 -28 35 -16 76 -33 92 -38 39 -12 70 -55 61 -83
-3 -12 -17 -28 -30 -37 -22 -14 -32 -13 -137 15 -113 31 -264 96 -305 134 -12
11 -29 17 -37 14 -9 -4 -15 -3 -13 2 3 11 -86 97 -97 93 -14 -5 -26 20 -20 41
3 11 0 17 -10 17 -12 0 -16 10 -16 35 0 24 -5 35 -15 35 -8 0 -17 11 -21 25
-3 13 -12 29 -19 35 -8 6 -11 19 -8 27 4 11 2 14 -5 9 -7 -4 -12 -1 -12 8 0 8
-4 16 -9 18 -5 2 -24 35 -43 74 -20 42 -38 69 -46 66 -7 -2 -15 9 -18 27 -4
17 -11 31 -16 31 -6 0 -7 7 -4 16 3 8 2 13 -3 10 -4 -3 -13 5 -18 17 -33 67
-53 118 -53 131 0 8 -7 16 -15 20 -8 3 -15 14 -15 25 0 11 -6 26 -13 33 -27
27 -49 68 -44 82 4 9 0 12 -11 9 -24 -6 -51 55 -31 68 10 6 11 9 1 9 -7 0 -18
11 -24 25 -9 19 -14 22 -21 13 -6 -9 -7 -4 -4 14 3 22 0 27 -23 32 -21 4 -29
12 -34 37 -3 18 -22 47 -45 68 -31 28 -40 46 -45 83 -4 25 -16 56 -26 69 -11
12 -20 29 -20 37 0 12 -3 12 -15 -4 -13 -16 -16 -17 -25 -4 -8 12 -10 12 -10
1 0 -8 -8 -3 -20 12 -11 14 -20 31 -20 38 0 7 -3 10 -6 6 -9 -8 118 -267 127
-261 4 2 11 -1 15 -7 4 -8 3 -9 -4 -5 -7 4 -12 5 -12 2 0 -2 35 -76 79 -163
43 -87 89 -180 101 -208 12 -27 66 -140 120 -250 101 -207 162 -302 227 -351
21 -15 40 -31 43 -34 3 -3 36 -19 74 -36 85 -36 118 -72 106 -114 -12 -43 -17
-49 -53 -55 -68 -13 -213 71 -322 186 -75 79 -107 134 -228 389 -154 325 -491
995 -508 1010 -3 3 -16 32 -29 65 -13 33 -31 71 -40 85 -32 47 -140 258 -140
273 0 8 -4 17 -8 19 -8 3 -89 165 -126 253 -10 22 -29 63 -42 90 -13 28 -24
56 -24 63 0 6 -4 12 -10 12 -5 0 -10 9 -10 19 0 27 -127 275 -157 308 -7 8
-15 29 -19 48 -3 19 -10 33 -14 30 -4 -2 -13 15 -20 38 -7 23 -51 121 -98 217
-47 96 -110 229 -142 295 -31 66 -154 316 -273 556 -118 239 -229 464 -245
500 -139 301 -245 519 -253 519 -3 0 -13 -27 -23 -60 -10 -33 -21 -60 -25 -60
-4 0 -23 -37 -41 -82 -19 -46 -76 -180 -128 -298 -94 -214 -138 -315 -192
-440 -34 -80 -96 -220 -142 -320 -89 -192 -388 -901 -482 -1140 -53 -133 -173
-424 -196 -475 -31 -65 -60 -161 -60 -195 l0 -39 58 -7 c61 -8 746 3 798 12
26 5 31 10 26 26 -3 13 1 24 12 30 23 13 23 98 0 98 -10 0 -14 6 -11 14 3 7 0
13 -6 13 -32 -1 -47 4 -47 16 0 48 -243 173 -265 136 -4 -5 -21 -9 -38 -8 -38
3 -116 -10 -139 -22 -9 -5 -20 -18 -23 -30 -6 -19 -9 -20 -23 -6 -12 13 -13
19 -3 31 16 19 5 40 -16 31 -23 -8 -10 66 22 130 13 28 28 67 31 88 4 20 11
40 15 43 5 3 9 12 9 20 0 9 14 48 31 87 16 40 48 115 71 167 22 52 44 104 49
115 4 11 26 60 48 108 23 49 41 90 41 92 0 3 11 28 24 57 13 29 34 76 46 103
12 28 34 75 47 105 14 30 36 82 48 115 13 33 35 82 49 109 14 27 31 67 38 88
6 21 15 38 20 38 4 0 8 8 8 17 0 9 9 36 20 60 11 24 28 62 39 86 10 23 29 65
41 92 12 28 51 118 87 200 127 298 138 315 196 315 60 0 77 -24 201 -287 51
-109 123 -259 158 -333 36 -74 84 -173 106 -220 22 -47 67 -143 101 -213 33
-70 61 -130 61 -132 0 -6 146 -309 256 -530 83 -168 89 -184 93 -252 2 -51 0
-73 -8 -73 -7 0 -9 -5 -6 -11 4 -6 13 -8 21 -5 8 3 14 1 14 -4 0 -6 6 -10 13
-10 21 0 120 -109 152 -167 15 -29 32 -50 38 -46 6 4 8 0 4 -9 -3 -9 3 -24 14
-34 10 -9 17 -19 15 -21 -2 -2 18 -45 45 -95 27 -51 49 -95 49 -99 0 -3 13
-33 30 -65 16 -32 30 -65 30 -71 0 -7 4 -13 8 -13 4 0 14 -17 21 -37 19 -53
42 -105 56 -123 6 -8 24 -44 39 -80 16 -36 43 -97 62 -137 41 -87 45 -144 12
-167 -32 -23 -61 -20 -87 8 -12 13 -63 103 -112 200 -122 244 -218 426 -240
458 -11 14 -19 31 -19 36 0 6 -6 17 -13 24 -30 32 -75 95 -81 115 -4 12 -16
33 -26 46 -20 25 -21 25 -67 11 -27 -8 -59 -13 -73 -10 -20 4 -80 -4 -135 -18
-18 -5 -80 -36 -110 -56 -16 -11 -40 -25 -52 -31 -13 -7 -23 -18 -23 -26 0 -7
-9 -13 -21 -13 -18 0 -18 -2 8 -26 36 -34 68 -47 174 -73 108 -25 156 -50 228
-117 59 -55 114 -146 132 -220 5 -21 13 -113 19 -203 8 -145 12 -170 35 -217
29 -60 69 -97 135 -128 38 -18 63 -21 165 -20 85 1 133 6 165 17 61 23 118 21
158 -3 36 -22 87 -120 171 -329 107 -266 212 -448 326 -569 81 -87 138 -126
225 -154 60 -19 92 -22 388 -26 l322 -4 20 -25 c26 -33 25 -49 -5 -78 l-24
-25 -318 0 c-354 0 -384 4 -508 65 -78 38 -162 107 -231 187 -100 117 -168
240 -336 608 -49 107 -92 198 -96 202 -4 4 -66 3 -138 -1 -179 -12 -269 -1
-360 44 -107 53 -178 141 -209 261 -8 34 -19 123 -24 200 -14 216 -58 302
-189 366 -65 32 -70 33 -192 32 -208 -1 -391 -12 -406 -25 -8 -6 -14 -18 -14
-25 0 -8 -7 -14 -15 -14 -8 0 -15 -7 -15 -16 0 -8 4 -12 10 -9 5 3 24 -8 41
-25 18 -16 39 -30 48 -31 29 -1 48 -7 84 -24 20 -9 42 -15 49 -12 7 2 21 -2
31 -11 9 -8 17 -11 17 -5 0 7 19 7 58 0 82 -13 92 -14 140 -16 85 -2 125 -87
60 -126 -30 -18 -51 -20 -233 -19 -115 1 -215 6 -235 12 -19 6 -56 13 -82 16
-26 2 -52 7 -58 11 -5 3 -16 3 -22 -2 -7 -4 -33 -9 -58 -10 -25 -1 -70 -7
-100 -12 -30 -6 -72 -12 -93 -15 -38 -4 -87 -29 -87 -45 0 -15 -31 -21 -51
-11 -10 6 -19 20 -19 30 0 12 -7 20 -17 20 -10 1 -64 5 -121 9 -126 11 -155
26 -150 77 4 48 28 59 163 78 61 9 118 17 128 18 10 2 25 14 32 28 9 15 14 19
15 10 1 -38 14 -40 86 -18 38 12 76 26 84 32 8 6 32 20 53 30 20 11 37 23 37
28 0 5 -25 20 -56 34 -45 20 -78 26 -168 30 -223 10 -752 19 -921 16 l-175 -3
-19 -42 c-10 -23 -28 -67 -39 -97 -49 -125 -138 -356 -202 -525 -300 -789
-398 -988 -563 -1140 -129 -120 -247 -172 -407 -182 -156 -9 -268 29 -420 142
-104 77 -124 111 -93 153 17 22 29 27 64 27 37 1 58 10 134 62 50 33 102 73
115 88 14 15 47 50 73 76 27 27 46 49 44 49 -2 0 10 15 27 33 17 18 40 52 51
75 11 23 25 42 32 42 6 0 15 9 18 21 4 11 22 47 41 80 19 34 34 67 34 74 0 8
6 20 13 27 8 7 17 29 20 48 9 42 58 164 69 168 5 2 8 12 8 23 0 11 7 30 15 42
12 19 57 129 69 172 13 43 30 75 39 75 8 0 7 3 -1 9 -11 7 -9 17 12 49 14 23
23 48 20 57 -3 8 -2 15 4 15 10 0 26 37 22 54 0 5 2 27 5 48 5 27 11 38 20 34
9 -3 12 0 9 9 -3 8 3 16 16 20 12 4 19 9 16 12 -11 12 -143 -84 -220 -159 -75
-73 -72 17 7 207 39 96 79 246 68 259 -5 6 -9 30 -10 54 -2 65 -3 71 -18 76
-11 4 -20 66 -10 66 21 0 97 -35 97 -44 0 -7 -7 -34 -16 -60 -13 -38 -14 -50
-4 -56 22 -14 -7 -126 -93 -362 -20 -54 -33 -98 -31 -98 3 0 17 14 31 31 28
33 105 87 198 138 120 67 152 108 230 296 9 22 23 52 31 68 18 32 26 32 -125
12 -63 -9 -116 -14 -118 -11 -5 4 5 7 148 36 58 12 110 25 115 28 14 10 114
216 114 234 0 9 3 18 8 20 10 4 52 95 52 113 0 8 27 67 60 132 32 64 58 118
56 120 -1 2 -44 -10 -95 -27 -110 -35 -203 -55 -326 -70 -49 -6 -98 -13 -108
-16 -17 -5 -18 -1 -12 53 10 89 64 302 90 354 19 37 69 97 54 64 -3 -5 -18
-37 -33 -70 -33 -71 -73 -223 -82 -312 l-7 -64 59 7 c229 24 436 87 472 145 8
12 9 18 3 14 -16 -9 -13 17 4 41 19 27 74 158 109 256 16 43 37 90 49 104 19
25 21 26 28 8 7 -18 8 -18 9 1 3 40 9 60 19 63 6 2 11 13 11 24 0 19 -5 20
-85 17 -47 -2 -85 -2 -85 -1 0 2 16 40 36 85 23 53 48 139 70 241 18 88 39
164 45 170 27 26 -41 -327 -80 -409 -27 -58 -28 -65 -12 -65 27 0 132 22 127
27 -2 2 15 41 38 86 24 45 51 105 60 134 9 28 25 62 35 75 9 13 32 59 51 103
19 44 42 95 52 113 l18 32 -73 0 c-39 -1 -103 -5 -142 -10 -38 -5 -70 -8 -71
-7 -3 3 76 430 81 446 3 8 8 12 10 9 3 -3 -8 -92 -25 -198 -16 -107 -30 -202
-30 -213 0 -17 7 -18 108 -12 108 7 166 20 156 36 -3 5 -1 9 4 9 8 0 72 118
72 134 0 13 84 181 93 184 4 2 7 9 7 14 0 12 71 160 81 168 5 4 21 53 23 72 1
3 4 10 9 14 18 19 3 20 -33 2 -22 -11 -72 -24 -112 -29 -116 -15 -352 -26
-362 -18 -16 14 20 163 55 235 62 125 161 208 298 248 127 37 122 10 -6 -32
-122 -40 -181 -82 -237 -170 -45 -69 -86 -181 -86 -234 l0 -31 113 7 c178 11
347 44 347 69 0 4 8 6 18 3 21 -7 49 21 72 69 8 17 20 37 27 46 7 8 14 24 16
35 1 10 6 25 11 32 4 7 -7 4 -26 -8 -67 -40 -66 -15 2 51 28 27 50 51 50 53 0
2 -60 2 -134 -1 -90 -4 -135 -2 -140 5 -8 13 66 23 264 34 26 2 83 88 105 157
l7 24 -141 -6 c-77 -3 -141 -4 -141 -2 0 3 15 11 33 19 17 8 50 31 72 51 61
56 123 96 172 111 54 16 49 5 -15 -32 -60 -34 -122 -83 -122 -95 0 -5 30 -9
66 -9 59 0 68 3 95 29 16 16 29 37 29 46 0 9 4 14 9 10 5 -3 17 9 25 26 20 40
20 37 -6 41 -22 3 -21 4 9 22 18 11 30 23 27 27 -2 4 0 10 6 14 18 11 0 25
-31 25 -16 0 -78 -18 -137 -40 -155 -59 -246 -89 -292 -96 -69 -11 -44 11 47
40 49 16 119 42 158 58 94 39 235 88 255 88 22 0 47 21 54 46 6 19 3 21 -31
18 -21 -1 -89 -14 -152 -28 -129 -30 -211 -33 -294 -11 -76 20 -168 67 -219
113 -30 27 -40 31 -34 17 20 -56 79 -135 150 -201 l79 -74 -39 -17 c-47 -21
-234 -24 -303 -4 -23 7 -45 11 -46 9 -2 -2 12 -24 31 -48 20 -25 40 -54 46
-64 10 -18 8 -17 -25 2 -22 14 -51 22 -79 22 -65 0 -193 35 -255 70 -62 36
-68 25 -22 -41 52 -73 90 -109 166 -159 l72 -46 -97 -25 c-79 -19 -122 -24
-232 -24 -155 0 -223 15 -336 71 -39 20 -78 34 -88 33 -50 -11 120 -210 224
-262 l55 -27 100 15 c162 25 192 28 174 16 -49 -31 -368 -80 -522 -81 -125 0
-132 -8 -43 -53 31 -16 55 -31 53 -33 -10 -10 -307 -2 -384 9 -59 9 -83 10
-83 2 0 -13 90 -100 143 -139 20 -15 67 -41 103 -58 62 -29 66 -32 48 -46 -37
-28 -200 -100 -252 -111 -68 -14 -233 -14 -323 0 -39 6 -73 8 -77 5 -10 -10
92 -99 149 -131 47 -25 68 -30 159 -35 l105 -5 -81 -27 c-88 -29 -168 -50
-256 -68 -32 -6 -58 -14 -58 -18 0 -4 16 -18 35 -31 20 -13 34 -26 31 -28 -8
-8 -162 -63 -236 -85 -41 -12 -145 -36 -230 -53 l-155 -32 65 -31 c87 -40 168
-61 267 -69 l82 -6 83 77 c86 80 189 151 210 144 7 -3 -17 -24 -52 -48 -58
-38 -310 -275 -310 -290 0 -8 4 -8 265 -18 194 -7 226 -10 202 -20 -18 -7 -91
-13 -195 -14 -92 -1 -141 -3 -109 -5 31 -2 57 -6 57 -9 0 -3 -17 -26 -39 -52
-21 -26 -82 -112 -136 -192 -54 -80 -113 -163 -131 -185 l-32 -40 41 2 c23 1
115 8 205 14 l162 12 58 62 c65 69 96 135 137 288 26 96 54 158 74 165 9 3 9
-4 -3 -25 -8 -16 -26 -72 -41 -124 -41 -149 -74 -227 -124 -292 -71 -93 -77
-96 -242 -113 -79 -8 -186 -18 -238 -24 -131 -13 -137 -6 -62 65 28 26 62 66
78 88 15 23 35 49 44 58 9 9 26 47 38 84 17 52 19 70 10 81 -7 8 -7 14 -1 14
15 0 24 31 12 45 -5 6 -6 15 -2 19 4 4 -6 19 -23 32 -16 14 -22 22 -12 18 9
-3 17 -1 17 4 0 6 21 13 48 15 38 3 33 4 -23 5 -78 3 -89 7 -97 39 -4 16 -2
20 9 16 12 -5 14 -1 8 18 -5 18 -4 21 4 9 10 -13 15 -8 12 13 0 4 5 7 12 7 8
0 7 4 -3 10 -12 8 -8 10 15 12 17 1 -4 4 -45 7 -85 7 -119 3 -98 -10 10 -7 8
-9 -7 -10 -17 -1 -17 -2 -3 -6 22 -5 23 -22 3 -29 -8 -4 -15 -13 -15 -21 0 -8
-4 -11 -10 -8 -6 4 -10 -8 -10 -29 0 -19 -7 -42 -16 -50 -8 -9 -13 -20 -9 -26
6 -9 -17 -46 -59 -97 -11 -13 -30 -23 -42 -23 -24 0 -54 38 -54 69 0 11 -4 22
-9 25 -4 3 -6 16 -4 28 2 13 0 42 -5 64 -5 23 -6 48 -2 55 12 21 24 142 14
136 -5 -3 -10 7 -11 21 -1 15 -5 40 -9 56 -5 22 -3 32 11 43 11 7 16 13 13 13
-4 0 6 13 20 29 43 46 52 59 52 75 0 8 4 17 9 20 5 3 12 27 16 53 4 27 16 66
26 87 10 22 19 44 19 49 0 5 14 38 30 74 17 35 30 69 30 74 0 5 4 9 8 9 4 0
23 25 41 55 38 62 69 77 110 54 23 -13 37 -46 44 -104 1 -11 -12 -61 -29 -110
-17 -50 -29 -97 -27 -105 4 -13 3 -13 -6 0 -12 18 -13 14 -11 -65 1 -64 15
-85 55 -85 26 0 85 62 85 89 0 22 20 40 20 19 1 -7 6 -3 13 10 7 12 16 20 20
17 4 -3 5 -2 2 1 -2 4 0 15 6 26 7 13 7 29 0 49 -6 16 -6 27 -2 24 5 -2 15 2
22 11 11 14 10 15 -6 12 -17 -3 -19 3 -20 57 l0 60 73 1 c39 1 72 -3 72 -8 0
-5 8 -5 18 0 9 5 23 7 30 5 6 -3 12 0 12 6 0 6 6 11 14 11 8 0 16 4 18 8 2 4
27 17 56 28 30 11 52 23 50 28 -2 4 5 12 15 17 9 6 26 28 37 50 12 22 25 37
30 34 6 -3 7 1 4 9 -3 9 -10 16 -16 16 -5 0 -6 -6 -2 -12 4 -7 3 -9 -2 -5 -4
4 -8 20 -9 35 0 17 -6 27 -15 27 -9 0 -14 8 -12 18 2 9 -3 17 -11 17 -8 0 -14
14 -15 35 -2 28 1 35 15 36 10 0 32 2 48 3 17 1 73 3 125 5 76 3 87 5 55 11
l-40 7 43 2 c23 0 42 5 42 11 0 5 7 7 15 4 11 -5 13 -2 9 10 -5 12 2 20 25 29
17 6 31 15 31 19 0 4 12 8 26 8 15 0 23 4 19 11 -4 6 2 13 13 16 14 3 18 11
15 24 -4 15 -2 18 11 13 11 -4 16 -1 16 10 0 9 -5 16 -10 16 -7 0 -7 6 0 19
12 23 13 34 2 27 -4 -2 -8 4 -8 14 0 10 5 16 11 12 5 -3 2 7 -9 22 -64 99 -11
150 93 89 48 -28 125 -40 137 -21 4 7 10 5 15 -3 7 -10 11 -11 17 -3 4 7 24
10 45 9 25 -2 35 0 30 8 -4 6 0 8 10 4 8 -3 21 1 27 8 7 8 16 12 21 9 5 -3 9
0 9 5 0 6 8 11 18 11 27 1 52 25 52 51 0 22 0 22 15 3 14 -17 14 -16 1 13 -9
17 -13 39 -10 47 3 8 -1 25 -10 38 -20 28 -20 52 -2 67 11 10 21 8 47 -6 70
-40 81 -45 107 -48 15 -2 27 -4 27 -5 0 -1 15 -3 34 -5 26 -2 39 3 57 23 13
13 24 21 24 17 0 -5 6 -2 13 7 6 10 32 19 57 21 67 7 104 18 117 36 7 9 13 12
13 6 0 -5 7 1 16 13 20 29 16 95 -8 144 -45 91 3 117 83 45 43 -39 64 -53 55
-38 -6 8 0 7 18 -4 16 -11 35 -15 50 -11 14 3 28 2 31 -4 3 -5 13 -10 21 -10
8 0 12 5 9 10 -8 13 35 13 68 1 19 -7 26 -5 36 11 11 17 10 18 -9 8 -11 -6
-20 -7 -20 -1 0 12 29 23 41 15 6 -3 16 0 24 6 8 7 24 10 35 7 12 -3 20 0 20
7 0 7 14 22 31 35 30 22 30 23 13 49 -16 24 -16 26 -1 13 17 -14 24 -3 9 14
-11 13 -32 87 -32 111 0 15 2 16 9 4 6 -8 8 -17 6 -21 -3 -4 14 -27 36 -53 34
-38 44 -44 60 -36 15 8 17 7 13 -4 -5 -12 0 -13 33 -3 21 6 44 17 51 24 7 7
26 20 42 30 17 9 30 21 30 25 0 4 6 8 13 8 14 0 57 52 57 69 0 6 6 14 13 18
16 11 54 88 66 138 6 22 12 69 13 105 l3 64 -40 7 c-37 6 -82 3 -295 -20 -105
-12 -331 -58 -344 -71 -5 -5 -20 -10 -31 -10 -21 0 -139 -38 -200 -65 -16 -7
-57 -23 -90 -35 -33 -12 -91 -35 -130 -52 -38 -16 -81 -34 -95 -40 -33 -14
-102 -49 -165 -84 -27 -15 -78 -42 -112 -61 -34 -19 -65 -38 -68 -44 -4 -5
-21 -16 -38 -24 -33 -15 -36 -17 -126 -78 -59 -39 -77 -52 -127 -92 -18 -14
-36 -25 -42 -25 -6 0 -12 -4 -14 -8 -1 -5 -44 -43 -95 -85 -137 -114 -406
-386 -485 -493 -13 -16 -33 -41 -45 -54 -13 -13 -25 -31 -28 -41 -7 -19 -57
-52 -95 -62 -39 -9 -65 16 -64 62 1 36 40 128 66 155 7 8 22 27 33 42 11 16
38 49 60 74 23 25 56 63 74 85 55 66 154 166 273 277 96 89 150 135 259 221 8
7 31 21 50 31 18 10 48 31 64 45 17 15 50 37 75 50 25 13 54 32 66 42 11 11
26 19 32 19 7 0 12 5 12 10 0 6 6 10 14 10 8 0 16 3 18 8 2 4 19 15 38 25 19
10 46 24 60 31 14 7 48 24 75 37 28 12 61 30 75 40 14 9 36 20 50 24 14 4 54
21 90 37 36 17 74 34 85 38 268 103 438 156 575 180 30 5 84 16 120 24 36 9
128 24 205 36 77 11 179 28 227 37 l87 16 26 48 c14 27 25 61 25 77 0 82 95
106 119 30z m-1120 -1547 c16 -11 -44 -25 -197 -46 -212 -30 -230 -11 -22 24
206 34 200 34 219 22z m1058 -43 c-3 -8 -6 -5 -6 6 -1 11 2 17 5 13 3 -3 4
-12 1 -19z m-1497 -202 c0 -2 -29 -22 -64 -45 -35 -22 -90 -61 -121 -86 -65
-53 -85 -52 -34 1 65 68 219 159 219 130z m-411 -169 c-80 -56 -306 -273 -295
-284 2 -2 42 11 87 30 106 43 129 51 129 40 0 -19 -180 -93 -227 -93 -28 0
-29 6 -2 50 45 74 288 284 307 265 3 -3 3 -6 1 -8z m596 -77 c-14 -22 -87 -50
-157 -60 -40 -6 -104 -15 -143 -21 -92 -13 -146 -39 -181 -85 -47 -62 -91
-104 -109 -104 -11 0 0 19 37 62 107 126 129 136 323 162 61 8 135 24 165 35
65 23 73 24 65 11z m4458 -64 c30 -28 62 -80 104 -166 33 -69 64 -138 67 -154
4 -15 15 -47 26 -70 16 -37 54 -171 110 -386 27 -103 61 -365 57 -426 -3 -28
-9 -60 -16 -72 -6 -11 -11 -36 -11 -54 0 -47 -25 -80 -58 -76 -23 3 -29 11
-43 58 -10 30 -29 120 -43 200 -15 80 -31 159 -36 175 -5 17 -12 50 -15 75 -6
46 -22 109 -55 215 -10 33 -22 76 -25 95 -4 19 -12 44 -19 55 -7 11 -23 58
-36 105 -12 47 -38 121 -55 165 -18 44 -38 98 -45 120 -7 22 -16 45 -20 50 -4
6 -7 36 -7 68 -1 50 2 60 20 66 32 12 54 3 100 -43z m-4874 -133 c-7 -10 -24
-31 -36 -46 -32 -39 -48 -102 -83 -315 -31 -188 -36 -206 -49 -198 -9 6 51
362 74 442 12 40 29 70 55 96 39 39 63 52 39 21z m-574 -202 c-14 -24 -219
-81 -288 -81 -39 0 -7 13 125 51 138 39 173 45 163 30z m-16 -116 c-27 -58
-66 -129 -87 -158 -49 -67 -83 -123 -78 -128 8 -7 260 9 311 21 28 6 83 24
123 41 41 17 76 28 80 25 9 -10 -139 -73 -198 -85 -50 -10 -280 -31 -337 -31
l-23 0 21 43 c12 23 42 71 67 107 25 36 60 98 78 138 34 73 72 132 85 132 4 0
-15 -47 -42 -105z m846 -172 c-44 -36 -105 -63 -145 -62 -34 0 -34 1 16 18 27
9 72 31 100 48 56 35 73 33 29 -4z m-516 -305 c-34 -127 -54 -182 -74 -211
-18 -25 -19 -19 -4 20 6 15 26 79 45 142 32 105 50 151 58 151 2 0 -9 -46 -25
-102z m-12 -312 c-20 -13 -77 -32 -125 -44 -99 -24 -438 -75 -456 -69 -24 10
48 26 234 51 127 18 223 37 275 55 100 35 121 37 72 7z m-717 -171 c0 -2 -20
-50 -44 -107 -49 -115 -90 -190 -159 -292 -25 -39 -45 -71 -43 -73 2 -2 52 7
112 21 174 39 263 51 275 39 7 -7 -9 -14 -53 -22 -92 -18 -233 -50 -312 -72
-107 -29 -109 -22 -22 104 83 120 119 185 112 203 -3 8 -2 13 3 10 4 -3 8 7 8
22 -1 15 3 43 7 63 7 33 5 37 -16 43 -22 7 -22 8 -4 15 29 11 6 21 -40 16 -88
-8 58 22 164 34 6 0 12 -1 12 -4z m74 -236 c-15 -63 -28 -116 -30 -118 -22
-24 0 97 33 191 9 26 18 46 20 44 2 -1 -9 -54 -23 -117z m6098 -96 c33 -38 29
-313 -6 -508 -19 -104 -70 -305 -95 -369 -10 -28 -24 -69 -31 -91 -13 -45 -19
-62 -48 -125 -12 -25 -28 -62 -37 -82 -9 -21 -21 -38 -27 -38 -6 0 -9 -3 -5
-6 6 -7 -39 -94 -57 -109 -10 -9 -24 -34 -26 -50 -1 -5 -36 -48 -67 -81 -27
-29 -34 -29 -64 -5 -20 16 -24 27 -22 68 1 26 11 66 23 88 11 21 20 45 20 52
0 7 5 13 10 13 6 0 10 11 10 24 0 14 5 28 10 31 6 3 10 14 10 24 0 10 7 24 14
31 8 6 23 35 32 63 9 28 25 64 34 81 14 25 35 101 31 113 0 2 8 27 18 55 11
29 22 72 26 96 4 23 10 42 14 42 4 0 14 23 21 50 7 28 17 50 21 50 8 0 18 83
18 143 0 20 4 37 8 37 5 0 17 46 27 103 9 56 22 113 27 127 5 14 14 52 19 84
6 37 18 68 31 83 27 28 41 29 61 6z m-6768 -118 c11 -22 25 -43 29 -46 4 -3
10 -29 12 -58 1 -28 7 -57 13 -64 5 -7 15 -41 22 -77 7 -36 16 -69 20 -75 4
-5 7 -17 7 -25 0 -14 41 -170 83 -320 29 -101 53 -164 66 -175 6 -5 14 -28 18
-51 5 -38 22 -82 64 -174 8 -19 15 -43 14 -53 0 -9 3 -15 8 -12 4 3 10 -10 13
-28 3 -17 11 -57 19 -88 17 -64 11 -89 -25 -108 -33 -18 -53 -5 -87 55 -15 27
-40 72 -55 99 -15 28 -36 58 -46 68 -11 10 -19 24 -19 32 0 8 -4 15 -9 15 -9
0 -19 21 -26 54 -1 6 -7 24 -13 39 -7 16 -12 30 -12 32 0 3 -11 28 -24 57 -13
29 -27 66 -31 82 -3 16 -15 48 -25 69 -11 22 -22 55 -26 74 -3 18 -10 33 -15
33 -5 0 -9 8 -9 18 0 14 2 15 10 2 18 -28 10 -1 -10 36 -12 20 -19 39 -16 41
3 3 -2 20 -11 37 -9 17 -18 55 -20 83 -2 29 -10 85 -18 125 -37 174 -28 340
19 358 28 11 54 -6 80 -55z m746 5 c0 -6 -25 -102 -56 -213 -64 -231 -74 -270
-70 -274 2 -2 38 13 82 34 108 50 196 56 307 20 l79 -25 13 32 c8 18 26 79 40
136 25 99 49 170 58 170 2 0 -15 -77 -37 -171 -51 -211 -50 -210 -157 -173
-104 36 -198 31 -289 -15 -36 -18 -72 -39 -81 -47 -21 -19 -48 -18 -56 2 -7
19 2 56 54 229 42 136 46 202 17 236 -8 9 -11 19 -7 24 5 4 -2 5 -14 2 -13 -3
-25 -2 -28 3 -3 4 21 15 53 23 70 19 92 20 92 7z m1553 -265 c4 -8 2 -17 -3
-20 -6 -4 -10 3 -10 14 0 25 6 27 13 6z m4544 -362 c-2 -21 -4 -6 -4 32 0 39
2 55 4 38 2 -18 2 -50 0 -70z m-1588 -498 c0 -5 -4 -3 -9 5 -5 8 -9 22 -9 30
0 16 17 -16 18 -35z m35 24 c-3 -5 -10 -7 -15 -3 -5 3 -7 10 -3 15 3 5 10 7
15 3 5 -3 7 -10 3 -15z m1277 -84 c-5 -47 -9 -63 -10 -40 -1 47 12 157 16 135
2 -8 -1 -51 -6 -95z m-1254 38 c-3 -10 -5 -4 -5 12 0 17 2 24 5 18 2 -7 2 -21
0 -30z m-3146 -341 c-33 -128 -78 -256 -111 -319 -35 -66 -34 -58 9 45 28 68
45 120 96 300 26 89 30 70 6 -26z m3334 68 c3 -5 1 -10 -4 -10 -6 0 -11 5 -11
10 0 6 2 10 4 10 3 0 8 -4 11 -10z m-2220 -58 c3 -26 9 -208 14 -405 4 -196
11 -360 14 -364 4 -3 7 35 7 85 0 51 4 92 8 92 5 0 12 118 16 263 8 314 12
356 35 353 11 -2 18 -17 23 -47 3 -24 7 -280 7 -569 1 -289 4 -610 8 -713 l6
-188 121 6 c67 3 168 10 225 16 57 6 121 8 143 5 25 -4 46 -2 61 8 12 8 54 19
92 25 39 6 120 24 180 41 128 36 126 35 145 43 8 4 56 20 105 36 136 44 191
65 295 114 272 127 286 131 320 97 26 -26 25 -33 -9 -67 -23 -23 -224 -130
-306 -163 -292 -118 -672 -220 -805 -218 -25 0 -70 -7 -100 -16 -61 -18 -298
-45 -402 -46 l-68 0 -22 -47 c-25 -53 -57 -71 -102 -59 -59 15 -92 157 -83
360 4 72 9 363 12 646 3 283 8 569 11 635 5 108 8 121 24 122 15 1 20 -8 25
-45z m-2732 -53 c50 -26 73 -91 47 -139 -14 -27 -66 -42 -93 -27 -64 35 -84
72 -67 123 17 51 63 68 113 43z m2207 -72 c0 -2 -19 -21 -42 -42 l-43 -40 40
43 c36 39 45 47 45 39z m-151 -146 c-35 -33 -64 -59 -67 -57 -2 2 25 31 60 64
34 34 64 59 66 57 2 -1 -25 -30 -59 -64z m3051 -125 c0 -54 -12 -38 -16 21 -3
34 -1 44 6 33 5 -8 10 -33 10 -54z m-2968 -242 c-21 -44 -63 -115 -94 -159
-30 -44 -85 -128 -121 -186 -69 -110 -99 -145 -116 -135 -11 7 -74 166 -68
172 2 3 19 -31 37 -76 19 -44 37 -80 41 -80 4 0 20 20 36 45 15 25 31 45 36
45 4 0 7 4 7 8 0 8 115 186 143 222 32 41 69 101 98 162 18 37 35 66 37 64 2
-2 -14 -39 -36 -82z m3193 -34 c22 -23 25 -30 12 -30 -9 0 -17 7 -17 15 0 8
-4 15 -9 15 -5 0 -11 7 -15 15 -8 21 -4 19 29 -15z m-4215 -425 c23 -8 87 -37
143 -64 56 -26 131 -59 167 -72 36 -13 67 -27 68 -31 2 -4 11 -8 20 -8 10 0
62 -16 117 -36 55 -19 150 -48 210 -64 61 -15 133 -37 160 -48 34 -13 87 -21
167 -25 128 -7 182 -23 193 -58 6 -17 2 -27 -16 -42 -21 -17 -34 -19 -104 -13
-98 7 -128 13 -171 31 -18 7 -49 11 -71 8 -49 -6 -228 38 -438 108 -191 64
-183 61 -357 147 -167 83 -198 104 -198 136 0 47 36 57 110 31z"/>
<path d="M4830 7775 c0 -3 25 -21 56 -41 36 -23 61 -33 72 -29 14 6 15 8 2 12
-8 3 -41 18 -72 34 -32 16 -58 26 -58 24z"/>
<path d="M5584 7762 c4 -7 1 -12 -9 -12 -15 0 -15 -2 -1 -15 8 -8 17 -15 20
-15 3 0 14 -7 23 -15 10 -8 27 -21 38 -29 20 -15 20 -15 0 -29 -19 -15 -19
-16 15 -83 19 -38 40 -74 46 -80 6 -7 12 -39 13 -71 2 -63 16 -119 36 -143 7
-8 20 -31 28 -50 8 -19 31 -57 52 -84 20 -27 42 -62 47 -77 6 -16 15 -26 21
-22 6 3 7 1 3 -5 -4 -6 0 -22 9 -36 9 -13 17 -44 19 -69 1 -25 11 -58 22 -73
10 -16 24 -38 31 -49 20 -32 63 -125 63 -135 0 -20 16 -9 83 56 38 36 71 63
74 60 3 -3 -20 -39 -51 -80 -75 -100 -94 -140 -76 -161 12 -14 19 -11 62 32
l49 48 -25 -55 c-30 -64 -32 -95 -10 -150 20 -48 34 -52 34 -7 0 17 9 50 19
72 l18 40 -5 -106 c-5 -106 -4 -107 27 -152 31 -46 55 -96 53 -109 -2 -9 72
-68 123 -98 85 -50 225 -181 225 -209 0 -7 -21 10 -48 37 -55 56 -158 135
-217 164 -40 21 -40 21 -22 1 10 -12 20 -33 23 -49 3 -16 11 -38 18 -49 7 -11
14 -24 14 -28 2 -12 25 -32 45 -40 9 -3 17 -11 17 -17 0 -5 7 -10 15 -10 29 0
132 -114 169 -187 41 -82 71 -108 107 -95 13 5 47 12 74 15 l50 7 -65 -20
c-36 -11 -81 -19 -101 -20 -33 0 -37 3 -60 52 -27 57 -89 149 -89 132 0 -6 8
-22 19 -35 10 -13 19 -27 19 -32 0 -4 6 -39 12 -78 7 -39 10 -79 7 -90 -3 -11
0 -19 7 -19 10 0 116 29 167 46 14 5 15 -1 9 -38 -4 -24 -18 -69 -29 -102 -12
-32 -20 -60 -17 -63 16 -16 207 116 289 200 78 79 90 101 106 178 8 37 23 70
44 95 18 22 42 53 53 69 22 32 57 115 49 115 -3 0 -29 -16 -59 -36 -29 -19
-75 -42 -101 -50 -54 -16 -115 -19 -115 -5 0 5 11 33 25 63 14 29 25 69 25 88
0 33 -1 33 -14 14 -22 -30 -132 -77 -163 -69 -25 6 -25 6 -18 87 l7 82 -42
-38 c-50 -45 -84 -60 -109 -46 -27 14 -32 34 -24 113 l6 71 -34 -21 c-121 -74
-111 -71 -139 -43 -16 16 -20 33 -20 85 l0 65 -47 -29 c-77 -47 -96 -48 -126
-9 -32 43 -57 127 -57 195 0 49 4 57 41 98 59 64 69 60 69 -26 l0 -71 38 23
c20 12 69 43 107 68 39 25 74 48 79 50 8 3 3 -88 -10 -176 -3 -24 -4 -43 -1
-43 19 0 110 48 152 79 79 60 121 77 109 46 -4 -10 0 -15 14 -15 24 0 32 -25
32 -107 0 -35 4 -63 9 -63 5 0 46 21 91 46 66 37 84 44 91 33 12 -20 11 -41
-6 -89 -8 -23 -15 -47 -15 -52 0 -13 32 -2 127 44 78 38 83 39 111 24 36 -18
56 -63 46 -102 -10 -42 -62 -155 -81 -176 -27 -30 1 -20 63 23 80 56 166 141
222 219 25 36 69 90 99 121 29 30 68 76 86 101 17 26 51 71 75 101 32 41 46
70 55 115 7 35 22 71 34 84 31 33 63 107 63 147 0 28 -3 32 -17 26 -84 -35
-148 -23 -313 54 -69 33 -142 64 -163 70 -74 19 -297 -19 -482 -82 -158 -55
-322 -107 -331 -107 -43 3 349 150 436 165 22 4 42 10 44 14 3 4 -29 36 -70
70 -40 35 -74 67 -74 73 0 6 15 -1 33 -16 17 -14 59 -42 93 -61 49 -28 71 -35
110 -34 48 1 123 15 94 18 -24 2 -136 57 -194 96 -29 19 -106 80 -171 136
-158 133 -189 149 -302 149 -88 0 -183 -17 -363 -65 -52 -14 -111 -25 -130
-24 -34 1 -34 1 15 16 139 41 245 76 241 80 -2 2 -50 17 -106 34 -114 32 -232
49 -360 49 -71 1 -82 3 -65 13 13 8 62 12 140 11 136 -1 265 -27 372 -75 59
-26 69 -28 131 -20 37 5 82 6 100 4 17 -3 32 -3 32 0 0 5 -251 87 -328 107
-129 33 -457 52 -567 31 -35 -6 -40 -10 -37 -31 l3 -24 -28 26 c-40 37 -63 47
-129 54 -42 5 -55 4 -50 -4z m1204 -277 c58 -26 166 -104 158 -113 -3 -2 -40
17 -83 42 -109 65 -166 80 -273 72 -47 -3 -96 -9 -110 -12 -45 -12 -8 13 45
30 72 23 190 14 263 -19z m-821 -91 c41 -31 71 -59 68 -62 -7 -7 -104 60 -135
93 -39 42 -11 28 67 -31z m-109 -87 c37 -24 101 -70 142 -103 41 -33 104 -81
140 -106 64 -45 110 -88 96 -88 -18 0 -353 232 -421 291 -32 28 -44 49 -29 49
3 0 36 -20 72 -43z m976 -33 c44 -13 82 -27 85 -30 9 -10 -82 2 -172 21 -66
14 -91 15 -153 6 -101 -15 -116 -14 -79 6 68 37 188 36 319 -3z m-629 -49 c28
-18 95 -56 148 -85 54 -29 96 -54 93 -57 -9 -9 -197 86 -262 132 -106 76 -93
83 21 10z m492 -57 c100 -51 147 -59 226 -37 45 12 52 9 34 -15 -18 -24 -92
-32 -168 -17 -65 13 -261 115 -237 123 21 7 46 -2 145 -54z m741 -79 c26 -6
99 -36 162 -66 63 -31 138 -64 165 -75 l50 -19 -53 5 c-35 3 -82 20 -140 49
-151 76 -202 91 -326 91 -99 1 -105 2 -70 13 50 15 152 16 212 2z m-682 -66
c-84 -45 -403 -109 -507 -101 -58 5 -32 11 126 32 66 9 179 31 250 50 145 38
174 43 131 19z m516 -24 c120 -40 222 -129 317 -274 85 -130 59 -122 -34 10
-55 79 -178 193 -234 218 -66 29 -138 47 -196 48 -37 0 -45 3 -30 9 36 15 114
11 177 -11z m-171 -156 c107 -50 184 -122 312 -295 57 -77 6 -35 -88 72 -131
149 -221 212 -350 246 l-50 14 56 -3 c36 -2 78 -14 120 -34z m-201 -138 c68
-23 213 -94 194 -95 -11 0 -305 118 -314 126 -8 8 47 -6 120 -31z m587 -281
c-3 -3 -12 -4 -19 -1 -8 3 -5 6 6 6 11 1 17 -2 13 -5z m-1067 -189 c152 -94
317 -243 452 -408 122 -149 53 -97 -103 78 -69 78 -210 204 -296 266 -101 71
-140 106 -155 134 -7 13 1 10 23 -11 19 -18 54 -44 79 -59z"/>
<path d="M3420 7250 c-9 -6 -10 -10 -3 -10 6 0 15 5 18 10 8 12 4 12 -15 0z"/>
<path d="M5921 6924 c0 -11 3 -14 6 -6 3 7 2 16 -1 19 -3 4 -6 -2 -5 -13z"/>
<path d="M5222 6393 c-28 -60 -72 -157 -98 -218 -26 -60 -60 -139 -77 -175
-16 -36 -69 -157 -117 -270 -48 -113 -102 -236 -120 -275 -85 -183 -105 -229
-151 -345 -27 -69 -54 -134 -59 -145 -13 -27 -48 -120 -67 -174 -8 -24 -11
-47 -6 -52 14 -14 83 -20 83 -7 0 9 3 9 12 0 7 -7 22 -12 33 -12 12 0 54 -11
94 -25 40 -14 81 -23 92 -20 11 4 19 2 19 -4 0 -6 24 -26 53 -45 29 -19 59
-41 66 -50 7 -9 17 -16 22 -16 4 0 20 -11 35 -25 60 -56 105 -11 118 115 3 30
8 244 12 475 3 231 10 449 15 485 5 36 9 115 9 175 0 61 4 116 9 123 12 19 40
-44 55 -126 l13 -67 11 43 c7 23 17 60 22 81 9 36 32 57 49 46 8 -5 13 -168
31 -975 10 -422 13 -505 20 -530 1 -3 5 4 9 15 4 11 16 20 26 20 14 0 27 23
55 105 37 106 62 160 99 215 28 41 26 17 -4 -47 -47 -102 -67 -164 -74 -230
-6 -61 -6 -66 8 -54 37 30 121 74 186 97 39 13 72 27 73 32 2 4 12 7 23 7 10
0 19 4 19 8 0 4 12 13 28 19 15 6 43 20 62 31 19 11 42 23 51 25 9 3 33 38 53
78 40 79 41 79 22 -2 -14 -56 -10 -64 19 -48 6 3 26 6 45 8 46 3 100 20 100
32 0 5 -8 9 -18 9 -32 0 -104 92 -117 148 -7 33 -46 120 -177 392 -36 74 -98
205 -138 290 -80 169 -293 615 -398 832 -37 76 -70 138 -73 138 -3 0 -28 -48
-57 -107z m48 -104 c0 -5 5 -7 10 -4 6 3 10 -1 10 -10 0 -8 -7 -18 -16 -22
-18 -7 -35 14 -27 34 6 16 23 18 23 2z"/>
<path d="M2414 6460 c0 -13 4 -16 10 -10 7 7 7 13 0 20 -6 6 -10 3 -10 -10z"/>
<path d="M2430 6410 c-9 -6 -10 -10 -3 -10 6 0 15 5 18 10 8 12 4 12 -15 0z"/>
<path d="M7025 6354 c-63 -35 -100 -42 -108 -21 -4 8 -6 7 -6 -3 -1 -9 4 -21
11 -28 9 -9 6 -12 -14 -12 -30 0 -51 -21 -42 -44 10 -26 22 -18 16 12 -4 22
-2 25 9 15 14 -14 20 -53 7 -53 -4 0 -8 -5 -8 -11 0 -8 4 -8 15 1 8 6 18 9 24
6 5 -3 12 0 15 6 4 7 4 3 2 -10 -3 -13 2 -26 12 -32 11 -6 13 -12 6 -17 -14
-11 -10 -73 6 -83 8 -5 9 -9 1 -11 -6 -2 -7 -9 -2 -17 7 -12 14 -11 40 2 17 9
31 21 31 27 0 6 5 7 10 4 6 -3 10 1 10 10 0 9 5 13 10 10 6 -3 10 -2 10 3 0
17 32 23 47 10 11 -9 14 -24 9 -58 -9 -63 -13 -82 -21 -102 -6 -14 -2 -18 15
-18 30 0 180 72 180 86 0 7 -8 10 -20 7 -24 -6 -38 23 -22 46 24 33 66 116 64
125 -2 5 1 21 6 36 13 36 -2 60 -38 60 -16 0 -32 -4 -35 -10 -3 -5 -18 -7 -33
-4 -16 3 -49 -3 -80 -15 l-52 -21 -12 25 c-6 13 -14 22 -18 20 -5 -3 -11 2
-14 11 -4 10 -2 13 7 8 8 -5 7 -2 -2 9 -9 11 -21 15 -35 12 -17 -5 -18 -4 -6
4 8 6 24 8 35 5 17 -4 18 -3 5 6 -13 10 -12 11 5 7 15 -3 21 1 21 14 0 11 0
18 -1 18 0 -1 -27 -16 -60 -35z"/>
<path d="M7320 6360 c-18 -12 -2 -12 25 0 13 6 15 9 5 9 -8 0 -22 -4 -30 -9z"/>
<path d="M6800 6346 c0 -2 7 -7 16 -10 8 -3 12 -2 9 4 -6 10 -25 14 -25 6z"/>
<path d="M6558 5787 c12 -13 19 -27 15 -32 -5 -4 -2 -5 5 -1 11 6 8 13 -9 32
-12 13 -25 24 -27 24 -3 0 4 -10 16 -23z"/>
<path d="M4114 5180 c0 -24 11 -26 20 -4 8 22 8 24 -7 24 -7 0 -13 -9 -13 -20z"/>
<path d="M4070 5128 c0 -7 5 -20 10 -28 8 -12 10 -11 10 7 0 12 -4 25 -10 28
-5 3 -10 0 -10 -7z"/>
<path d="M3730 5030 c-6 -11 -8 -20 -6 -20 3 0 10 9 16 20 6 11 8 20 6 20 -3
0 -10 -9 -16 -20z"/>
<path d="M3953 4859 c-30 -9 -47 -39 -22 -39 5 0 8 -4 4 -10 -3 -5 -11 -7 -18
-5 -14 5 -57 -58 -57 -85 0 -10 -6 -25 -14 -33 -8 -8 -12 -23 -10 -34 4 -13 0
-22 -10 -26 -9 -4 -16 -15 -16 -26 0 -11 -4 -23 -10 -26 -5 -3 -10 -15 -10
-26 0 -11 -7 -22 -15 -25 -9 -4 -15 -19 -15 -35 0 -16 -4 -29 -8 -29 -4 0 -13
-13 -19 -30 -8 -21 -8 -30 -1 -30 6 0 3 -9 -6 -19 -19 -20 -35 -70 -43 -133
l-5 -38 41 0 c32 0 41 4 42 18 0 11 2 13 6 4 6 -15 33 30 33 54 0 8 6 13 13
12 6 -2 12 7 12 19 0 12 9 32 19 45 12 14 19 36 19 57 -1 24 2 30 8 20 6 -10
9 -6 9 14 0 15 5 27 10 27 6 0 10 9 10 20 0 11 4 28 9 38 5 9 19 46 31 82 12
36 26 74 30 85 18 41 34 166 22 164 -4 0 -22 -5 -39 -10z"/>
<path d="M7081 3973 c0 -25 1 -26 9 -8 12 27 12 35 0 35 -5 0 -10 -12 -9 -27z"/>
<path d="M3639 3953 c-69 -62 -60 -45 -310 -608 -210 -475 -398 -811 -524
-939 -87 -88 -141 -103 -182 -53 -25 29 -39 31 -65 7 -12 -11 -27 -20 -33 -20
-6 0 -38 -13 -71 -29 -32 -15 -69 -31 -82 -35 -34 -11 -23 -26 49 -63 91 -46
157 -58 249 -45 211 30 360 163 503 447 48 96 215 506 290 715 25 69 53 139
61 155 9 17 16 38 16 47 0 9 5 20 10 23 6 4 8 16 4 27 -4 14 -2 18 5 14 6 -4
11 -2 11 5 0 6 16 54 36 106 93 251 104 283 89 283 -8 0 -34 -17 -56 -37z
m-812 -1615 c-3 -8 -6 -5 -6 6 -1 11 2 17 5 13 3 -3 4 -12 1 -19z"/>
<path d="M7060 3939 c0 -4 11 -27 25 -50 14 -24 25 -39 25 -34 0 11 -49 94
-50 84z"/>
<path d="M7108 3891 c9 -22 20 -37 24 -35 9 6 -16 59 -31 69 -5 3 -2 -12 7
-34z"/>
<path d="M7130 3825 c0 -8 2 -15 4 -15 2 0 6 7 10 15 3 8 1 15 -4 15 -6 0 -10
-7 -10 -15z"/>
<path d="M7190 3824 c0 -10 5 -26 10 -34 8 -11 9 -7 4 15 -8 37 -14 45 -14 19z"/>
<path d="M7160 3813 c0 -18 20 -66 25 -61 3 3 -1 20 -9 39 -9 19 -15 29 -16
22z"/>
<path d="M7930 2520 c0 -5 5 -10 11 -10 5 0 7 5 4 10 -3 6 -8 10 -11 10 -2 0
-4 -4 -4 -10z"/>
</g>
</svg>
